<mxfile type="github" version="12.2.3" host="www.draw.io" modified="2019-11-10T16:12:56.520Z" agent="Mozilla/5.0 (Windows NT 10.0; Win64; x64) AppleWebKit/537.36 (KHTML, like Gecko) Chrome/64.0.3282.140 Safari/537.36 Edge/18.17763" etag="Nc6ZMMH5xHrg-fFRXYxb" pages="1">
  <diagram id="l5ggJXfIMDFSLUiGnFUf" name="Page-1">
    <mxGraphModel grid="1" dx="1024" dy="530" gridSize="10" guides="1" tooltips="1" connect="1" arrows="1" fold="1" page="1" pageScale="1" pageWidth="850" pageHeight="1100" math="0" shadow="0">
      <root>
        <mxCell id="0"/>
        <mxCell id="1" parent="0"/>
        <mxCell id="36JtMmAvUOwakFZ_KH8K-11" parent="1" style="edgeStyle=orthogonalEdgeStyle;rounded=0;orthogonalLoop=1;jettySize=auto;html=1;exitX=0.5;exitY=1;exitDx=0;exitDy=0;entryX=0.5;entryY=0;entryDx=0;entryDy=0;" edge="1" source="36JtMmAvUOwakFZ_KH8K-4" target="36JtMmAvUOwakFZ_KH8K-5">
          <mxGeometry as="geometry" relative="1"/>
        </mxCell>
        <mxCell id="36JtMmAvUOwakFZ_KH8K-4" value="" parent="1" style="ellipse;whiteSpace=wrap;html=1;" vertex="1">
          <mxGeometry as="geometry" x="280" y="80" width="120" height="80"/>
        </mxCell>
        <mxCell id="36JtMmAvUOwakFZ_KH8K-12" parent="1" style="edgeStyle=orthogonalEdgeStyle;rounded=0;orthogonalLoop=1;jettySize=auto;html=1;exitX=0.5;exitY=1;exitDx=0;exitDy=0;entryX=0.5;entryY=0;entryDx=0;entryDy=0;" edge="1" source="36JtMmAvUOwakFZ_KH8K-5" target="36JtMmAvUOwakFZ_KH8K-6">
          <mxGeometry as="geometry" relative="1"/>
        </mxCell>
        <mxCell id="36JtMmAvUOwakFZ_KH8K-5" value="" parent="1" style="shape=parallelogram;perimeter=parallelogramPerimeter;whiteSpace=wrap;html=1;" vertex="1">
          <mxGeometry as="geometry" x="280" y="180" width="120" height="60"/>
        </mxCell>
        <mxCell id="36JtMmAvUOwakFZ_KH8K-13" parent="1" style="edgeStyle=orthogonalEdgeStyle;rounded=0;orthogonalLoop=1;jettySize=auto;html=1;exitX=0.5;exitY=1;exitDx=0;exitDy=0;entryX=0.5;entryY=0;entryDx=0;entryDy=0;" edge="1" source="36JtMmAvUOwakFZ_KH8K-6">
          <mxGeometry as="geometry" relative="1">
            <mxPoint as="targetPoint" x="340.3333333333335" y="339.66666666666674"/>
          </mxGeometry>
        </mxCell>
        <mxCell id="36JtMmAvUOwakFZ_KH8K-6" value="" parent="1" style="shape=parallelogram;perimeter=parallelogramPerimeter;whiteSpace=wrap;html=1;" vertex="1">
          <mxGeometry as="geometry" x="280" y="260" width="120" height="60"/>
        </mxCell>
        <mxCell id="36JtMmAvUOwakFZ_KH8K-14" parent="1" style="edgeStyle=orthogonalEdgeStyle;rounded=0;orthogonalLoop=1;jettySize=auto;html=1;exitX=0.5;exitY=1;exitDx=0;exitDy=0;entryX=0.5;entryY=0;entryDx=0;entryDy=0;" edge="1" target="36JtMmAvUOwakFZ_KH8K-8">
          <mxGeometry as="geometry" relative="1">
            <mxPoint as="sourcePoint" x="340.3333333333335" y="399.66666666666674"/>
          </mxGeometry>
        </mxCell>
        <mxCell id="36JtMmAvUOwakFZ_KH8K-15" parent="1" style="edgeStyle=orthogonalEdgeStyle;rounded=0;orthogonalLoop=1;jettySize=auto;html=1;exitX=0.5;exitY=1;exitDx=0;exitDy=0;entryX=0.5;entryY=0;entryDx=0;entryDy=0;" edge="1" source="36JtMmAvUOwakFZ_KH8K-8" target="36JtMmAvUOwakFZ_KH8K-9">
          <mxGeometry as="geometry" relative="1"/>
        </mxCell>
        <mxCell id="36JtMmAvUOwakFZ_KH8K-8" value="" parent="1" style="rounded=0;whiteSpace=wrap;html=1;" vertex="1">
          <mxGeometry as="geometry" x="280" y="420" width="120" height="60"/>
        </mxCell>
        <mxCell id="36JtMmAvUOwakFZ_KH8K-9" value="Край" parent="1" style="ellipse;whiteSpace=wrap;html=1;" vertex="1">
          <mxGeometry as="geometry" x="280" y="500" width="120" height="80"/>
        </mxCell>
        <mxCell id="36JtMmAvUOwakFZ_KH8K-16" value="" parent="1" style="rhombus;whiteSpace=wrap;html=1;" vertex="1">
          <mxGeometry as="geometry" x="300" y="340" width="80" height="80"/>
        </mxCell>
      </root>
    </mxGraphModel>
  </diagram>
</mxfile>
